<mxfile host="Electron" agent="Mozilla/5.0 (Windows NT 10.0; Win64; x64) AppleWebKit/537.36 (KHTML, like Gecko) draw.io/26.2.2 Chrome/134.0.6998.178 Electron/35.1.2 Safari/537.36" version="26.2.2">
  <diagram name="Page-1" id="aAPq7yrX8xiN54vTb0ye">
    <mxGraphModel dx="1833" dy="779" grid="1" gridSize="10" guides="1" tooltips="1" connect="1" arrows="1" fold="1" page="0" pageScale="1" pageWidth="850" pageHeight="1100" math="0" shadow="0">
      <root>
        <mxCell id="0" />
        <mxCell id="1" parent="0" />
        <mxCell id="GxLiyHWng1ZLxqPeN5Pv-1" value="" style="rounded=1;whiteSpace=wrap;html=1;fillColor=none;strokeColor=#d6b656;fontStyle=1;strokeWidth=3;" vertex="1" parent="1">
          <mxGeometry x="-340" y="140" width="160" height="380" as="geometry" />
        </mxCell>
        <mxCell id="CCftOi4Q_SrcD-vtpvmh-3" value="" style="rounded=0;whiteSpace=wrap;html=1;fillColor=none;dashed=1;" parent="1" vertex="1">
          <mxGeometry x="-985.36" y="80" width="170.77" height="440" as="geometry" />
        </mxCell>
        <mxCell id="CCftOi4Q_SrcD-vtpvmh-12" value="&lt;font style=&quot;font-size: 24px;&quot;&gt;Sources&lt;/font&gt;" style="text;html=1;align=center;verticalAlign=middle;resizable=0;points=[];autosize=1;strokeColor=none;fillColor=default;" parent="1" vertex="1">
          <mxGeometry x="-954.98" y="60" width="110" height="40" as="geometry" />
        </mxCell>
        <mxCell id="GxLiyHWng1ZLxqPeN5Pv-10" style="edgeStyle=orthogonalEdgeStyle;rounded=0;orthogonalLoop=1;jettySize=auto;html=1;" edge="1" parent="1" source="CCftOi4Q_SrcD-vtpvmh-32" target="WwM-MeeeuHuCIYZ2TYNl-12">
          <mxGeometry relative="1" as="geometry" />
        </mxCell>
        <mxCell id="GxLiyHWng1ZLxqPeN5Pv-11" style="edgeStyle=orthogonalEdgeStyle;rounded=0;orthogonalLoop=1;jettySize=auto;html=1;entryX=0;entryY=0.5;entryDx=0;entryDy=0;" edge="1" parent="1" source="CCftOi4Q_SrcD-vtpvmh-32" target="WwM-MeeeuHuCIYZ2TYNl-15">
          <mxGeometry relative="1" as="geometry" />
        </mxCell>
        <mxCell id="GxLiyHWng1ZLxqPeN5Pv-12" style="edgeStyle=orthogonalEdgeStyle;rounded=0;orthogonalLoop=1;jettySize=auto;html=1;entryX=0;entryY=0.5;entryDx=0;entryDy=0;" edge="1" parent="1" source="CCftOi4Q_SrcD-vtpvmh-32" target="WwM-MeeeuHuCIYZ2TYNl-14">
          <mxGeometry relative="1" as="geometry" />
        </mxCell>
        <mxCell id="CCftOi4Q_SrcD-vtpvmh-32" value="" style="image;aspect=fixed;html=1;points=[];align=center;fontSize=12;image=img/lib/azure2/general/Folder_Blank.svg;" parent="1" vertex="1">
          <mxGeometry x="-923.92" y="220" width="49.29" height="40" as="geometry" />
        </mxCell>
        <mxCell id="CCftOi4Q_SrcD-vtpvmh-36" value="&lt;b&gt;CRM&lt;/b&gt;" style="text;html=1;align=center;verticalAlign=middle;resizable=0;points=[];autosize=1;strokeColor=none;fillColor=none;" parent="1" vertex="1">
          <mxGeometry x="-924.27" y="260" width="50" height="30" as="geometry" />
        </mxCell>
        <mxCell id="GxLiyHWng1ZLxqPeN5Pv-13" style="edgeStyle=orthogonalEdgeStyle;rounded=0;orthogonalLoop=1;jettySize=auto;html=1;" edge="1" parent="1" source="CCftOi4Q_SrcD-vtpvmh-38" target="WwM-MeeeuHuCIYZ2TYNl-17">
          <mxGeometry relative="1" as="geometry" />
        </mxCell>
        <mxCell id="GxLiyHWng1ZLxqPeN5Pv-14" style="edgeStyle=orthogonalEdgeStyle;rounded=0;orthogonalLoop=1;jettySize=auto;html=1;entryX=0;entryY=0.5;entryDx=0;entryDy=0;" edge="1" parent="1" source="CCftOi4Q_SrcD-vtpvmh-38" target="WwM-MeeeuHuCIYZ2TYNl-16">
          <mxGeometry relative="1" as="geometry" />
        </mxCell>
        <mxCell id="GxLiyHWng1ZLxqPeN5Pv-15" style="edgeStyle=orthogonalEdgeStyle;rounded=0;orthogonalLoop=1;jettySize=auto;html=1;entryX=0;entryY=0.5;entryDx=0;entryDy=0;" edge="1" parent="1" source="CCftOi4Q_SrcD-vtpvmh-38" target="WwM-MeeeuHuCIYZ2TYNl-18">
          <mxGeometry relative="1" as="geometry" />
        </mxCell>
        <mxCell id="CCftOi4Q_SrcD-vtpvmh-38" value="" style="image;aspect=fixed;html=1;points=[];align=center;fontSize=12;image=img/lib/azure2/general/Folder_Blank.svg;" parent="1" vertex="1">
          <mxGeometry x="-924.62" y="400" width="49.29" height="40" as="geometry" />
        </mxCell>
        <mxCell id="CCftOi4Q_SrcD-vtpvmh-39" value="&lt;b&gt;ERP&lt;/b&gt;" style="text;html=1;align=center;verticalAlign=middle;resizable=0;points=[];autosize=1;strokeColor=none;fillColor=none;" parent="1" vertex="1">
          <mxGeometry x="-924.62" y="440" width="50" height="30" as="geometry" />
        </mxCell>
        <UserObject label="&lt;span style=&quot;color: rgba(0, 0, 0, 0.6); font-family: -apple-system, system-ui, BlinkMacSystemFont, &amp;quot;Segoe UI&amp;quot;, Roboto, &amp;quot;Helvetica Neue&amp;quot;, &amp;quot;Fira Sans&amp;quot;, Ubuntu, Oxygen, &amp;quot;Oxygen Sans&amp;quot;, Cantarell, &amp;quot;Droid Sans&amp;quot;, &amp;quot;Apple Color Emoji&amp;quot;, &amp;quot;Segoe UI Emoji&amp;quot;, &amp;quot;Segoe UI Emoji&amp;quot;, &amp;quot;Segoe UI Symbol&amp;quot;, &amp;quot;Lucida Grande&amp;quot;, Helvetica, Arial, sans-serif; font-size: 14px; font-style: normal; font-variant-ligatures: normal; font-variant-caps: normal; letter-spacing: normal; orphans: 2; text-align: start; text-indent: 0px; text-transform: none; widows: 2; word-spacing: 0px; -webkit-text-stroke-width: 0px; white-space: normal; background-color: rgb(255, 255, 255); text-decoration-thickness: initial; text-decoration-style: initial; text-decoration-color: initial; float: none; display: inline !important;&quot;&gt;linkedin.com/in/&lt;b&gt;prashantsoni97&lt;/b&gt;&lt;/span&gt;" link="&lt;span style=&quot;color: rgba(0, 0, 0, 0.6); font-family: -apple-system, system-ui, BlinkMacSystemFont, &amp;quot;Segoe UI&amp;quot;, Roboto, &amp;quot;Helvetica Neue&amp;quot;, &amp;quot;Fira Sans&amp;quot;, Ubuntu, Oxygen, &amp;quot;Oxygen Sans&amp;quot;, Cantarell, &amp;quot;Droid Sans&amp;quot;, &amp;quot;Apple Color Emoji&amp;quot;, &amp;quot;Segoe UI Emoji&amp;quot;, &amp;quot;Segoe UI Emoji&amp;quot;, &amp;quot;Segoe UI Symbol&amp;quot;, &amp;quot;Lucida Grande&amp;quot;, Helvetica, Arial, sans-serif; font-size: 14px; font-style: normal; font-variant-ligatures: normal; font-variant-caps: normal; font-weight: 400; letter-spacing: normal; orphans: 2; text-align: start; text-indent: 0px; text-transform: none; widows: 2; word-spacing: 0px; -webkit-text-stroke-width: 0px; white-space: normal; background-color: rgb(255, 255, 255); text-decoration-thickness: initial; text-decoration-style: initial; text-decoration-color: initial; display: inline !important; float: none;&quot;&gt;linkedin.com/in/prashantsoni97&lt;/span&gt;" id="gh4Ekd1EIu0wh4TbDIRg-9">
          <mxCell style="text;whiteSpace=wrap;html=1;" parent="1" vertex="1">
            <mxGeometry x="-24.48" y="-5" width="199.23" height="30" as="geometry" />
          </mxCell>
        </UserObject>
        <mxCell id="WwM-MeeeuHuCIYZ2TYNl-3" style="edgeStyle=orthogonalEdgeStyle;rounded=0;orthogonalLoop=1;jettySize=auto;html=1;exitX=0.5;exitY=1;exitDx=0;exitDy=0;" parent="1" source="CCftOi4Q_SrcD-vtpvmh-3" target="CCftOi4Q_SrcD-vtpvmh-3" edge="1">
          <mxGeometry relative="1" as="geometry" />
        </mxCell>
        <mxCell id="WwM-MeeeuHuCIYZ2TYNl-7" value="&lt;font style=&quot;font-size: 14px;&quot;&gt;Bronze&lt;/font&gt;" style="rounded=1;whiteSpace=wrap;html=1;fillColor=#ffe6cc;strokeColor=#d79b00;fontStyle=1" parent="1" vertex="1">
          <mxGeometry x="-740" y="80" width="160" height="40" as="geometry" />
        </mxCell>
        <mxCell id="WwM-MeeeuHuCIYZ2TYNl-10" value="&lt;font style=&quot;font-size: 14px;&quot;&gt;Gold&lt;/font&gt;" style="rounded=1;whiteSpace=wrap;html=1;fillColor=#fff2cc;strokeColor=#d6b656;fontStyle=1" parent="1" vertex="1">
          <mxGeometry x="-340" y="80" width="160" height="40" as="geometry" />
        </mxCell>
        <mxCell id="WwM-MeeeuHuCIYZ2TYNl-11" value="" style="rounded=1;whiteSpace=wrap;html=1;fillColor=none;strokeColor=#d79b00;fontStyle=1;strokeWidth=3;" parent="1" vertex="1">
          <mxGeometry x="-740" y="140" width="160" height="380" as="geometry" />
        </mxCell>
        <mxCell id="uzscffKffSdlLqdksH3t-16" style="edgeStyle=orthogonalEdgeStyle;rounded=0;orthogonalLoop=1;jettySize=auto;html=1;" parent="1" source="WwM-MeeeuHuCIYZ2TYNl-12" target="uzscffKffSdlLqdksH3t-10" edge="1">
          <mxGeometry relative="1" as="geometry" />
        </mxCell>
        <mxCell id="WwM-MeeeuHuCIYZ2TYNl-12" value="crm_cust_info" style="rounded=1;whiteSpace=wrap;html=1;fillColor=#ffe6cc;strokeColor=#d79b00;strokeWidth=2;" parent="1" vertex="1">
          <mxGeometry x="-720" y="220" width="120" height="40" as="geometry" />
        </mxCell>
        <mxCell id="uzscffKffSdlLqdksH3t-17" style="edgeStyle=orthogonalEdgeStyle;rounded=0;orthogonalLoop=1;jettySize=auto;html=1;exitX=1;exitY=0.5;exitDx=0;exitDy=0;" parent="1" source="WwM-MeeeuHuCIYZ2TYNl-14" target="uzscffKffSdlLqdksH3t-11" edge="1">
          <mxGeometry relative="1" as="geometry" />
        </mxCell>
        <mxCell id="WwM-MeeeuHuCIYZ2TYNl-14" value="crm_prd_info" style="rounded=1;whiteSpace=wrap;html=1;fillColor=#ffe6cc;strokeColor=#d79b00;strokeWidth=2;" parent="1" vertex="1">
          <mxGeometry x="-720" y="280" width="120" height="40" as="geometry" />
        </mxCell>
        <mxCell id="uzscffKffSdlLqdksH3t-18" style="edgeStyle=orthogonalEdgeStyle;rounded=0;orthogonalLoop=1;jettySize=auto;html=1;entryX=0;entryY=0.5;entryDx=0;entryDy=0;" parent="1" source="WwM-MeeeuHuCIYZ2TYNl-15" target="uzscffKffSdlLqdksH3t-12" edge="1">
          <mxGeometry relative="1" as="geometry" />
        </mxCell>
        <mxCell id="WwM-MeeeuHuCIYZ2TYNl-15" value="crm_sales_details" style="rounded=1;whiteSpace=wrap;html=1;fillColor=#ffe6cc;strokeColor=#d79b00;strokeWidth=2;" parent="1" vertex="1">
          <mxGeometry x="-720" y="160" width="120" height="40" as="geometry" />
        </mxCell>
        <mxCell id="uzscffKffSdlLqdksH3t-19" style="edgeStyle=orthogonalEdgeStyle;rounded=0;orthogonalLoop=1;jettySize=auto;html=1;entryX=0;entryY=0.5;entryDx=0;entryDy=0;" parent="1" source="WwM-MeeeuHuCIYZ2TYNl-16" target="uzscffKffSdlLqdksH3t-13" edge="1">
          <mxGeometry relative="1" as="geometry" />
        </mxCell>
        <mxCell id="WwM-MeeeuHuCIYZ2TYNl-16" value="erp_cust_az12" style="rounded=1;whiteSpace=wrap;html=1;fillColor=#ffe6cc;strokeColor=#d79b00;strokeWidth=2;" parent="1" vertex="1">
          <mxGeometry x="-720" y="340" width="120" height="40" as="geometry" />
        </mxCell>
        <mxCell id="uzscffKffSdlLqdksH3t-20" style="edgeStyle=orthogonalEdgeStyle;rounded=0;orthogonalLoop=1;jettySize=auto;html=1;" parent="1" source="WwM-MeeeuHuCIYZ2TYNl-17" target="uzscffKffSdlLqdksH3t-14" edge="1">
          <mxGeometry relative="1" as="geometry" />
        </mxCell>
        <mxCell id="WwM-MeeeuHuCIYZ2TYNl-17" value="erp_loc_a101" style="rounded=1;whiteSpace=wrap;html=1;fillColor=#ffe6cc;strokeColor=#d79b00;strokeWidth=2;" parent="1" vertex="1">
          <mxGeometry x="-720" y="400" width="120" height="40" as="geometry" />
        </mxCell>
        <mxCell id="uzscffKffSdlLqdksH3t-21" style="edgeStyle=orthogonalEdgeStyle;rounded=0;orthogonalLoop=1;jettySize=auto;html=1;" parent="1" source="WwM-MeeeuHuCIYZ2TYNl-18" target="uzscffKffSdlLqdksH3t-15" edge="1">
          <mxGeometry relative="1" as="geometry" />
        </mxCell>
        <mxCell id="WwM-MeeeuHuCIYZ2TYNl-18" value="erp_px_cat_g1v2" style="rounded=1;whiteSpace=wrap;html=1;fillColor=#ffe6cc;strokeColor=#d79b00;strokeWidth=2;" parent="1" vertex="1">
          <mxGeometry x="-720" y="460" width="120" height="40" as="geometry" />
        </mxCell>
        <mxCell id="uzscffKffSdlLqdksH3t-8" value="&lt;font style=&quot;font-size: 14px;&quot;&gt;Silver&lt;/font&gt;" style="rounded=1;whiteSpace=wrap;html=1;fillColor=#f5f5f5;strokeColor=#666666;fontStyle=1;fontColor=#333333;" parent="1" vertex="1">
          <mxGeometry x="-540" y="80" width="160" height="40" as="geometry" />
        </mxCell>
        <mxCell id="uzscffKffSdlLqdksH3t-9" value="" style="rounded=1;whiteSpace=wrap;html=1;fillColor=none;strokeColor=#666666;fontStyle=1;strokeWidth=3;fontColor=#333333;" parent="1" vertex="1">
          <mxGeometry x="-540" y="140" width="160" height="380" as="geometry" />
        </mxCell>
        <mxCell id="uzscffKffSdlLqdksH3t-10" value="crm_cust_info" style="rounded=1;whiteSpace=wrap;html=1;fillColor=#f5f5f5;strokeColor=#666666;strokeWidth=2;fontColor=#333333;" parent="1" vertex="1">
          <mxGeometry x="-520" y="220" width="120" height="40" as="geometry" />
        </mxCell>
        <mxCell id="uzscffKffSdlLqdksH3t-11" value="crm_prd_info" style="rounded=1;whiteSpace=wrap;html=1;fillColor=#f5f5f5;strokeColor=#666666;strokeWidth=2;fontColor=#333333;" parent="1" vertex="1">
          <mxGeometry x="-520" y="280" width="120" height="40" as="geometry" />
        </mxCell>
        <mxCell id="uzscffKffSdlLqdksH3t-12" value="crm_sales_details" style="rounded=1;whiteSpace=wrap;html=1;fillColor=#f5f5f5;strokeColor=#666666;strokeWidth=2;fontColor=#333333;" parent="1" vertex="1">
          <mxGeometry x="-520" y="160" width="120" height="40" as="geometry" />
        </mxCell>
        <mxCell id="uzscffKffSdlLqdksH3t-13" value="erp_cust_az12" style="rounded=1;whiteSpace=wrap;html=1;fillColor=#f5f5f5;strokeColor=#666666;strokeWidth=2;fontColor=#333333;" parent="1" vertex="1">
          <mxGeometry x="-520" y="340" width="120" height="40" as="geometry" />
        </mxCell>
        <mxCell id="uzscffKffSdlLqdksH3t-14" value="erp_loc_a101" style="rounded=1;whiteSpace=wrap;html=1;fillColor=#f5f5f5;strokeColor=#666666;strokeWidth=2;fontColor=#333333;" parent="1" vertex="1">
          <mxGeometry x="-520" y="400" width="120" height="40" as="geometry" />
        </mxCell>
        <mxCell id="uzscffKffSdlLqdksH3t-15" value="erp_px_cat_g1v2" style="rounded=1;whiteSpace=wrap;html=1;fillColor=#f5f5f5;strokeColor=#666666;strokeWidth=2;fontColor=#333333;" parent="1" vertex="1">
          <mxGeometry x="-520" y="460" width="120" height="40" as="geometry" />
        </mxCell>
        <mxCell id="GxLiyHWng1ZLxqPeN5Pv-2" value="fact_sales" style="rounded=1;whiteSpace=wrap;html=1;fillColor=#fff2cc;strokeColor=#d6b656;strokeWidth=2;" vertex="1" parent="1">
          <mxGeometry x="-320" y="200" width="120" height="40" as="geometry" />
        </mxCell>
        <mxCell id="GxLiyHWng1ZLxqPeN5Pv-3" value="dim_customers" style="rounded=1;whiteSpace=wrap;html=1;fillColor=#fff2cc;strokeColor=#d6b656;strokeWidth=2;" vertex="1" parent="1">
          <mxGeometry x="-320" y="310" width="120" height="40" as="geometry" />
        </mxCell>
        <mxCell id="GxLiyHWng1ZLxqPeN5Pv-4" value="dim_products" style="rounded=1;whiteSpace=wrap;html=1;fillColor=#fff2cc;strokeColor=#d6b656;strokeWidth=2;" vertex="1" parent="1">
          <mxGeometry x="-320" y="420" width="120" height="40" as="geometry" />
        </mxCell>
        <mxCell id="GxLiyHWng1ZLxqPeN5Pv-16" value="" style="endArrow=classic;html=1;rounded=0;entryX=0;entryY=0.5;entryDx=0;entryDy=0;" edge="1" parent="1" target="GxLiyHWng1ZLxqPeN5Pv-2">
          <mxGeometry width="50" height="50" relative="1" as="geometry">
            <mxPoint x="-400" y="180" as="sourcePoint" />
            <mxPoint x="-350" y="130" as="targetPoint" />
          </mxGeometry>
        </mxCell>
        <mxCell id="GxLiyHWng1ZLxqPeN5Pv-17" value="" style="endArrow=classic;html=1;rounded=0;entryX=0;entryY=0.5;entryDx=0;entryDy=0;jumpStyle=gap;" edge="1" parent="1" target="GxLiyHWng1ZLxqPeN5Pv-3">
          <mxGeometry width="50" height="50" relative="1" as="geometry">
            <mxPoint x="-400" y="240" as="sourcePoint" />
            <mxPoint x="-350" y="190" as="targetPoint" />
          </mxGeometry>
        </mxCell>
        <mxCell id="GxLiyHWng1ZLxqPeN5Pv-18" value="" style="endArrow=classic;html=1;rounded=0;entryX=0;entryY=0.5;entryDx=0;entryDy=0;jumpStyle=gap;" edge="1" parent="1" target="GxLiyHWng1ZLxqPeN5Pv-4">
          <mxGeometry width="50" height="50" relative="1" as="geometry">
            <mxPoint x="-400" y="300" as="sourcePoint" />
            <mxPoint x="-320" y="390" as="targetPoint" />
          </mxGeometry>
        </mxCell>
        <mxCell id="GxLiyHWng1ZLxqPeN5Pv-19" value="" style="endArrow=classic;html=1;rounded=0;entryX=0;entryY=0.5;entryDx=0;entryDy=0;jumpStyle=gap;" edge="1" parent="1" target="GxLiyHWng1ZLxqPeN5Pv-3">
          <mxGeometry width="50" height="50" relative="1" as="geometry">
            <mxPoint x="-400" y="360" as="sourcePoint" />
            <mxPoint x="-320" y="510" as="targetPoint" />
          </mxGeometry>
        </mxCell>
        <mxCell id="GxLiyHWng1ZLxqPeN5Pv-20" value="" style="endArrow=classic;html=1;rounded=0;entryX=0;entryY=0.5;entryDx=0;entryDy=0;jumpStyle=gap;" edge="1" parent="1" target="GxLiyHWng1ZLxqPeN5Pv-3">
          <mxGeometry width="50" height="50" relative="1" as="geometry">
            <mxPoint x="-400" y="420" as="sourcePoint" />
            <mxPoint x="-320" y="570" as="targetPoint" />
          </mxGeometry>
        </mxCell>
        <mxCell id="GxLiyHWng1ZLxqPeN5Pv-21" value="" style="endArrow=classic;html=1;rounded=0;entryX=0;entryY=0.5;entryDx=0;entryDy=0;jumpStyle=gap;" edge="1" parent="1" target="GxLiyHWng1ZLxqPeN5Pv-4">
          <mxGeometry width="50" height="50" relative="1" as="geometry">
            <mxPoint x="-400" y="480" as="sourcePoint" />
            <mxPoint x="-320" y="630" as="targetPoint" />
          </mxGeometry>
        </mxCell>
      </root>
    </mxGraphModel>
  </diagram>
</mxfile>
